<svg width="1206" height="314" xmlns="http://www.w3.org/2000/svg" xmlns:xlink="http://www.w3.org/1999/xlink">
 <defs>
  <linearGradient y2="0.49996" x2="1.00001" y1="0.49996" x1="0.00014" id="linear-gradient">
   <stop stop-color="#009eff" offset="0"/>
   <stop stop-color="#0057ff" offset="1"/>
  </linearGradient>
  <linearGradient xlink:href="#linear-gradient" y2="278.89" x2="641.07" y1="278.89" x1="470.85" id="linear-gradient-2"/>
 </defs>
 <title>Asset 10</title>
 <g>
  <title>Layer 1</title>
  <g transform="rotate(180 606.703 256.155)" data-name="Layer 2" id="Layer_2">
   <g data-name="Layer 1" id="Layer_1-2">
    <rect x="-393.2973" y="5" id="svg_1" fill="transparent" height="403" width="2000" class="cls-1"/>
    <path id="svg_2" fill="url(#linear-gradient)" d="m276.4227,507.31l-42.13,-71.84a26,26 0 0 0 -2.79,2.4c-5.17,5.95 -10.27,12 -15.43,17.91c-2.73,3.15 -5.45,6.31 -8.32,9.34c-7,7.36 -14.77,14.9 -22.11,21.88c-6.86,6.53 -13.8,13.09 -22.1,18.13c-8.26,-4.89 -16.31,-9.92 -23.34,-16.44c-2.61,-2.42 -5.39,-4.68 -8,-7.15c-8.42,-8.05 -14.71,-17.09 -21.48,-26.53c-4.94,-6.88 -9.64,-13.93 -14.45,-20.92c-2.37,2 -13.36,20.43 -21.22,34.81c-6.48,11.88 -13.42,23.52 -20.32,35.57a20.13,20.13 0 0 1 -2.75,-2c-3.78,-4 -7.77,-7.85 -11.2,-12.14c-6.27,-7.84 -9.55,-16.88 -10.92,-26.92c-1.39,-10.23 1.23,-19.7 3.44,-29.38c1.92,-8.44 6.22,-15.71 10.55,-23c6.15,-10.38 12,-20.91 18.07,-31.35c1.55,-2.68 3.26,-5.26 5,-8c23.51,0 46.71,0 69.77,0.05c-0.19,3.27 -0.15,6.5 -0.19,9.27c0,2.92 1.69,5.3 3,7.93c6.31,12.68 13.48,25.44 19.71,38.18c0.65,1.33 1.35,2.64 2.34,4.6a55.46,55.46 0 0 0 3,-4.71c7.06,-12.26 12.53,-23.07 19.58,-35.33c1.89,-3.3 3.8,-6.73 3.42,-10.67c-0.25,-2.63 0,-6.22 0,-9a104.55,104.55 0 0 1 11.74,-0.24c20.3,-0.13 40.61,-0.06 60.91,-0.05c0.74,0 1.47,0.12 2.35,0.19c1.72,3 3.51,5.87 5.12,8.87q13.56,25.2 27,50.44a49.4,49.4 0 0 1 5.38,18.28c1.22,11.19 -1.58,21.44 -6,31.5c-3.37,7.73 -8.23,14.47 -13.62,20.87c-1.27,1.55 -2.4,3.27 -4.01,5.45z" class="cls-2"/>
    <path id="svg_3" fill="url(#linear-gradient-2)" d="m187.7727,352c0,-5 0,-9.14 0,-13.31a16.27,16.27 0 0 0 -1.25,-6.49c-4,-9.68 -8.23,-19.2 -13.76,-28.07a85.8,85.8 0 0 0 -11,-14.47c-7.85,7.42 -13.26,16.31 -18.11,25.51c-2.91,5.51 -5,11.45 -7.31,17.27a12.81,12.81 0 0 0 -0.46,4.4c0,4.77 0,9.53 0,14.81c-9.89,0.76 -19.53,0.24 -29.14,0.33s-19,0 -29,0c0,-4.19 -0.45,-7.93 0.09,-11.53a156.06,156.06 0 0 1 9.62,-35.65c5.83,-14.46 13.78,-27.69 22.62,-40.47a185,185 0 0 1 19.86,-24c6.21,-6.35 13.38,-11.78 20.31,-17.38c3.45,-2.78 7.33,-5 10.62,-7.26c6,0.81 30.14,21.6 37.84,30.19c27,30.13 42.66,65.52 49.09,105.81c-5,0.65 -9.86,0.25 -14.7,0.31c-5.07,0.08 -10.15,0 -15.23,0l-30.09,0z" class="cls-3"/>
    <path id="svg_4" fill="#999" d="m791.7027,442.09a0.91,0.91 0 0 1 0.28,0.68l0,6.16a0.91,0.91 0 0 1 -0.28,0.68a0.9,0.9 0 0 1 -0.68,0.28l-14.72,0a0.35,0.35 0 0 0 -0.4,0.4l0,46.56a0.91,0.91 0 0 1 -0.28,0.68a0.9,0.9 0 0 1 -0.68,0.28l-7.36,0a0.93,0.93 0 0 1 -0.68,-0.28a1,1 0 0 1 -0.28,-0.68l0,-46.56a0.35,0.35 0 0 0 -0.4,-0.4l-14.16,0a0.93,0.93 0 0 1 -0.68,-0.28a1,1 0 0 1 -0.28,-0.68l0,-6.16a1,1 0 0 1 0.28,-0.68a0.93,0.93 0 0 1 0.68,-0.28l39,0a0.9,0.9 0 0 1 0.64,0.28z" class="cls-4"/>
    <path id="svg_5" fill="#999" d="m849.3727,449.53a0.9,0.9 0 0 1 -0.68,0.28l-27.28,0a0.35,0.35 0 0 0 -0.4,0.4l0,15a0.35,0.35 0 0 0 0.4,0.4l26.29,0a0.9,0.9 0 0 1 0.68,0.28a0.91,0.91 0 0 1 0.28,0.68l0,6.08a0.91,0.91 0 0 1 -0.28,0.68a0.9,0.9 0 0 1 -0.68,0.28l-26.32,0a0.35,0.35 0 0 0 -0.4,0.4l0,15.44a0.35,0.35 0 0 0 0.4,0.4l27.32,0a0.9,0.9 0 0 1 0.68,0.28a0.91,0.91 0 0 1 0.28,0.68l0,6.08a0.91,0.91 0 0 1 -0.28,0.68a0.9,0.9 0 0 1 -0.68,0.28l-36,0a0.93,0.93 0 0 1 -0.68,-0.28a1,1 0 0 1 -0.28,-0.68l0,-54.12a1,1 0 0 1 0.28,-0.68a0.93,0.93 0 0 1 0.68,-0.28l36,0a0.9,0.9 0 0 1 0.68,0.28a0.91,0.91 0 0 1 0.28,0.68l0,6.08a0.91,0.91 0 0 1 -0.29,0.68z" class="cls-4"/>
    <path id="svg_6" fill="#999" d="m878.4527,496.09a17,17 0 0 1 -7,-6.6a19.18,19.18 0 0 1 -2.48,-9.84l0,-19.76a19.18,19.18 0 0 1 2.48,-9.84a16.79,16.79 0 0 1 7,-6.56a22.94,22.94 0 0 1 10.56,-2.32a23.51,23.51 0 0 1 10.48,2.24a16.52,16.52 0 0 1 7,6.32a17.76,17.76 0 0 1 2.48,9.44a0.91,0.91 0 0 1 -0.28,0.68a0.9,0.9 0 0 1 -0.68,0.28l-7.36,0.4c-0.64,0 -1,-0.29 -1,-0.88a10.18,10.18 0 0 0 -2.92,-7.6a10.6,10.6 0 0 0 -7.8,-2.88a10.78,10.78 0 0 0 -7.84,2.88a10.13,10.13 0 0 0 -3,7.6l0,20.4a10,10 0 0 0 3,7.52a12.12,12.12 0 0 0 15.64,0a10,10 0 0 0 2.92,-7.56c0,-0.59 0.32,-0.88 1,-0.88l7.36,0.32a1,1 0 0 1 0.68,0.24a0.71,0.71 0 0 1 0.28,0.56a18.11,18.11 0 0 1 -2.48,9.56a16.42,16.42 0 0 1 -7,6.36a23.51,23.51 0 0 1 -10.48,2.24a22.7,22.7 0 0 1 -10.56,-2.32z" class="cls-4"/>
    <path id="svg_7" fill="#999" d="m960.8927,442.09a0.91,0.91 0 0 1 0.68,-0.28l7.36,0a1,1 0 0 1 1,1l0,54.08a1,1 0 0 1 -1,1l-7.36,0a1,1 0 0 1 -1,-1l0,-22.89a0.35,0.35 0 0 0 -0.4,-0.4l-20.4,0a0.35,0.35 0 0 0 -0.4,0.4l0,22.88a1,1 0 0 1 -1,1l-7.36,0a1,1 0 0 1 -1,-1l0,-54.11a1,1 0 0 1 1,-1l7.36,0a1,1 0 0 1 1,1l0,22.4a0.35,0.35 0 0 0 0.4,0.4l20.4,0a0.35,0.35 0 0 0 0.4,-0.4l0,-22.4a0.91,0.91 0 0 1 0.32,-0.68z" class="cls-4"/>
    <path id="svg_8" fill="#999" d="m992.5727,497.53a0.91,0.91 0 0 1 -0.28,-0.68l0,-54.08a1,1 0 0 1 1,-1l7.36,0a1,1 0 0 1 1,1l0,54.08a1,1 0 0 1 -1,1l-7.36,0a0.91,0.91 0 0 1 -0.72,-0.32z" class="cls-4"/>
    <path id="svg_9" fill="#999" d="m1057.2927,442.09a0.91,0.91 0 0 1 0.68,-0.28l7.36,0a1,1 0 0 1 1,1l0,54.08a1,1 0 0 1 -1,1l-7.12,0a1.14,1.14 0 0 1 -1.12,-0.64l-23,-37.76c-0.11,-0.16 -0.21,-0.23 -0.32,-0.2s-0.16,0.15 -0.16,0.36l0.16,37.28a1,1 0 0 1 -1,1l-7.36,0a1,1 0 0 1 -1,-1l0,-54.16a1,1 0 0 1 1,-1l7.12,0a1.14,1.14 0 0 1 1.12,0.64l23,37.76c0.11,0.16 0.21,0.23 0.32,0.2s0.16,-0.15 0.16,-0.36l-0.08,-37.28a0.91,0.91 0 0 1 0.24,-0.64z" class="cls-4"/>
    <path id="svg_10" fill="#999" d="m1126.0127,449.53a0.91,0.91 0 0 1 -0.68,0.28l-27.2,0a0.35,0.35 0 0 0 -0.4,0.4l0,15a0.35,0.35 0 0 0 0.4,0.4l26.32,0a1,1 0 0 1 1,1l0,6.08a1,1 0 0 1 -1,1l-26.32,0a0.35,0.35 0 0 0 -0.4,0.4l0,22.88a1,1 0 0 1 -1,1l-7.36,0a1,1 0 0 1 -1,-1l0,-54.2a1,1 0 0 1 1,-1l35.92,0a1,1 0 0 1 1,1l0,6.08a0.91,0.91 0 0 1 -0.28,0.68z" class="cls-4"/>
    <path id="svg_11" fill="#999" d="m1152.8527,496.17a17.25,17.25 0 0 1 -7.16,-6.92a20.71,20.71 0 0 1 -2.52,-10.32l0,-18.24a20,20 0 0 1 2.56,-10.2a17.64,17.64 0 0 1 7.16,-6.88a24.42,24.42 0 0 1 21.28,0a17.64,17.64 0 0 1 7.16,6.88a20,20 0 0 1 2.56,10.2l0,18.24a20.42,20.42 0 0 1 -2.56,10.32a17.55,17.55 0 0 1 -7.16,6.92a24.51,24.51 0 0 1 -21.32,0zm18.72,-8.68a11.29,11.29 0 0 0 3,-8.24l0,-18.64a11.39,11.39 0 0 0 -3,-8.32a11.92,11.92 0 0 0 -16.08,0a11.39,11.39 0 0 0 -3,8.32l0,18.64a11.29,11.29 0 0 0 3,8.24a11.92,11.92 0 0 0 16.08,0z" class="cls-4"/>
    <path id="svg_12" fill="#151d26" d="m421.2327,399.53l-4.4,-11c-7.81,9.77 -20,13.67 -29.78,13.67c-32.48,0 -49.82,-19.53 -49.82,-43c0,-28.08 27.11,-42.24 53.72,-41.76a69.66,69.66 0 0 1 23.69,4.89c-0.74,-17.34 -11.72,-23.69 -24.42,-23.93c-12.21,-0.24 -26.61,3.91 -33.94,10l-11.23,-20.7c15.38,-12.46 31,-15.88 48.1,-15.88c28.32,0 54.69,15.14 54.69,51.28l0,76.43l-26.61,0zm-6.35,-33.46l0,-19.53a55.72,55.72 0 0 0 -21.73,-4.39c-12.7,0 -24.66,4.64 -24.91,16.11c-0.48,22.74 34.19,20.74 46.64,7.81z" class="cls-5"/>
    <path id="svg_13" fill="#151d26" d="m476.7027,261.81l0,-33l33.21,0l0,33l-33.21,0zm33.45,13.92l0,123.8l-33.45,0l0,-123.8l33.45,0z" class="cls-5"/>
    <path id="svg_14" fill="#151d26" d="m634.8727,291.36c10.5,-15.63 24.17,-17.09 36.38,-17.09c27.35,0 52,11 52,52.49l0,72.77l-31.74,0l0,-73c0,-17.34 -9.77,-23.69 -20.76,-23.69c-11.23,0 -21,7.57 -21,23.93l0,72.77l-31,0l0,-72c0,-23.2 -25.4,-31.75 -42.49,-17.34l0,89.37l-33.44,0l0,-123.84l27.35,0l4.88,11c14.65,-18.57 50.54,-16.37 59.82,4.63z" class="cls-5"/>
    <path id="svg_15" fill="#151d26" d="m817.2627,401.48c-10.25,0 -23.19,-2.2 -33,-14.65l-2.93,12.7l-24.63,0l0,-170.92l33.45,0l-0.25,52c6.11,-4.89 16.36,-6.84 22,-6.84c37.6,0 59.82,29.79 59.82,64.46c-0.02,34.93 -21.49,63.25 -54.46,63.25zm-27.1,-37.85c5.86,7.33 12.7,9.28 18.56,9.28c19,0 29.54,-14.16 29.54,-34.67c0,-24.42 -13.18,-35.41 -31.74,-35.41c-4.64,0 -11.23,1.23 -16.36,4.89l0,55.91z" class="cls-5"/>
    <path id="svg_16" fill="#151d26" d="m923.9627,274.51l2.68,12.94c14.65,-18.55 40.54,-18.07 56.9,-3.91l-14.17,25.15c-15.62,-10.25 -39.55,-6.59 -39.55,13.68l0,77.16l-33,0l0,-125l27.14,-0.02z" class="cls-5"/>
    <path id="svg_17" fill="#151d26" d="m995.7027,261.81l0,-33l33.21,0l0,33l-33.21,0zm33.45,13.92l0,123.8l-33.45,0l0,-123.8l33.45,0z" class="cls-5"/>
    <path id="svg_18" fill="#151d26" d="m1106.8427,399.77c-28.08,4.64 -50.55,-5.62 -50.55,-39.8l0,-131.36l33.41,0l0,131.39c0,6.35 3.18,13.67 17.1,12.45l0.04,27.32z" class="cls-5"/>
    <path id="svg_19" fill="#151d26" d="m1177.8827,399.77c-28.08,4.64 -50.54,-5.62 -50.54,-39.8l0,-131.36l33.45,0l0,131.39c0,6.35 3.18,13.67 17.09,12.45l0,27.32z" class="cls-5"/>
   </g>
  </g>
 </g>
</svg>